<?xml version="1.0" encoding="utf-8"?>
<!-- Generator: Adobe Illustrator 26.5.0, SVG Export Plug-In . SVG Version: 6.00 Build 0)  -->
<svg version="1.1" id="Layer_1" xmlns="http://www.w3.org/2000/svg" xmlns:xlink="http://www.w3.org/1999/xlink" x="0px" y="0px"
	 viewBox="0 0 328.6 96" style="enable-background:new 0 0 328.6 96;" xml:space="preserve">
<style type="text/css">
	.st0{fill:#929497;}
	.st1{fill:none;stroke:#221F1F;stroke-width:1.8739;stroke-miterlimit:10;}
	
		.st2{clip-path:url(#SVGID_00000051341835729781705820000013698813097006309002_);fill:url(#SVGID_00000118373940259397263200000014170883023087732649_);}
</style>
<path class="st0" d="M45.8,96c-12.2,0-23.8-4.8-32.4-13.4C4.8,73.9,0,62.4,0,50.2c0-12.2,4.8-23.8,13.4-32.4
	C22.7,8.5,35.6,3.6,48.7,4.4l2.9,0.2L49.1,6c-2.4,1.3-4.6,3-6.6,5c-1,1-2,2.1-2.8,3.2c-2.1,2.8-3.7,6-4.8,9.4
	c-0.9,3.1-1.4,6.3-1.3,9.6c0.1,3.1,0.7,6.2,1.7,9.2c1.5,4.2,3.8,7.9,7,11l0.2,0.2c3.2,3.1,6.9,5.5,11.1,7c3,1.1,6,1.6,9.2,1.7
	c3.3,0.1,6.5-0.3,9.6-1.2c3.4-1,6.6-2.6,9.4-4.8c1.1-0.8,2.2-1.7,3.2-2.8c2-2,3.6-4.2,5-6.6l1.4-2.6l0.2,2.9
	c0.8,13.1-4,26-13.3,35.3C69.6,91.2,58.1,96,45.8,96 M45.8,6.1c-11.6,0-22.8,4.6-31.1,12.9C6.3,27.3,1.7,38.4,1.7,50.2
	C1.7,62,6.3,73,14.6,81.4c8.3,8.3,19.4,12.9,31.2,12.9S68.7,89.7,77,81.4l0.6,0.6L77,81.4c8.3-8.3,12.9-19.5,12.9-31.1
	c-1.1,1.6-2.4,3.1-3.8,4.5c-1.1,1.1-2.2,2.1-3.4,2.9c-3,2.3-6.3,4-10,5c-3.3,1-6.7,1.4-10.1,1.3c-3.3-0.1-6.6-0.7-9.7-1.8
	c-4.4-1.6-8.3-4.1-11.7-7.4l-0.1-0.1c0,0-0.1-0.1-0.1-0.1c-3.3-3.3-5.8-7.3-7.3-11.6c-1.1-3.1-1.7-6.4-1.8-9.7
	c-0.1-3.4,0.3-6.8,1.3-10.1c1.1-3.6,2.8-7,5-10c0.9-1.2,1.8-2.3,2.9-3.4C42.7,8.4,44.2,7.2,45.8,6.1"/>
<path class="st1" d="M41.9,54.1L41.9,54.1C41.8,54.1,41.8,54.1,41.9,54.1C41.8,54.1,41.8,54.1,41.9,54.1z"/>
<path class="st0" d="M45.9,65c-3.8,0-7.7-1.5-10.5-4.4c-5-5-5.8-12.9-1.9-18.8l1.5-2.3l0.9,2.6c1.5,4.1,3.8,7.7,6.9,10.8l0.2,0.2
	c3.1,3.1,6.8,5.4,10.9,6.9l2.6,0.9l-2.3,1.5C51.6,64.2,48.7,65,45.9,65 M34.5,46c-1.6,4.3-0.6,9.4,2.8,12.8
	c3.4,3.4,8.4,4.4,12.8,2.8c-3.4-1.6-6.4-3.7-9.1-6.3l-0.1-0.1c0,0-0.1-0.1-0.1-0.1C38.1,52.3,36,49.3,34.5,46"/>
<path class="st0" d="M45.8,72.8c-5.8,0-11.6-2.2-16-6.6c-8.8-8.8-8.8-23.2,0-32c0.7-0.7,1.4-1.3,2.2-1.9l1.9-1.5l0.1,2.4
	c0.1,3.1,0.7,6.2,1.7,9.1c1.5,4.1,3.8,7.8,6.9,10.9l0.2,0.2c3.1,3.1,6.8,5.4,10.9,6.9c2.9,1,6,1.6,9.1,1.7l2.4,0.1l-1.5,1.9
	c-0.6,0.8-1.2,1.5-1.9,2.2C57.4,70.6,51.6,72.8,45.8,72.8 M31.8,35.8c0,0-0.1,0.1-0.1,0.1c-7.8,7.8-7.8,20.6,0,28.4
	c7.8,7.8,20.6,7.8,28.4,0c0,0,0.1-0.1,0.1-0.1c-2.5-0.3-4.9-0.8-7.3-1.7c-4.5-1.6-8.5-4.1-11.8-7.5L41,55c0,0-0.1-0.1-0.1-0.1
	c-3.3-3.4-5.8-7.3-7.4-11.8C32.6,40.8,32,38.3,31.8,35.8"/>
<path class="st0" d="M45.8,80.5c-7.8,0-15.5-3-21.5-8.9c-11.8-11.8-11.8-31.1,0-42.9c2.7-2.7,5.8-4.8,9.3-6.4l2.2-1l-0.7,2.3
	c-0.9,3.1-1.3,6.3-1.2,9.5c0.1,3.1,0.7,6.2,1.7,9.1c1.5,4.1,3.8,7.8,6.9,10.9l0.2,0.2c3.1,3.1,6.8,5.4,11,6.9c2.9,1,6,1.6,9.1,1.7
	c3.2,0.1,6.4-0.3,9.5-1.2l2.3-0.7l-1,2.2c-1.5,3.5-3.7,6.6-6.3,9.3C61.4,77.6,53.6,80.5,45.8,80.5 M32.4,25.5
	c-2.4,1.3-4.5,2.9-6.5,4.8c-11,11-11,28.8,0,39.8c11,11,28.8,11,39.8,0c1.9-1.9,3.5-4.1,4.8-6.4c-2.6,0.6-5.2,0.8-7.8,0.7
	c-3.3-0.1-6.6-0.7-9.8-1.8c-4.5-1.6-8.4-4.1-11.8-7.4l-0.1-0.1c0,0-0.1-0.1-0.1-0.1c-3.3-3.4-5.8-7.3-7.4-11.7
	c-1.1-3.1-1.7-6.4-1.8-9.8C31.6,30.6,31.9,28,32.4,25.5"/>
<path class="st0" d="M45.8,88.3c-10.2,0-19.7-4-26.9-11.2C4,62.3,4,38.1,18.9,23.2c5.5-5.5,12.4-9.1,19.9-10.5l2.5-0.5l-1.5,2
	c-2.1,2.8-3.7,6-4.7,9.4c-0.9,3.1-1.3,6.3-1.2,9.5c0.1,3.1,0.7,6.2,1.7,9.2c1.5,4.1,3.8,7.8,6.9,11l0.2,0.2c3.1,3.1,6.8,5.5,11,6.9
	c2.9,1,6,1.6,9.1,1.7c3.2,0.1,6.4-0.3,9.5-1.2c3.4-1,6.6-2.6,9.4-4.8l2-1.5l-0.5,2.5c-1.4,7.6-5,14.5-10.5,19.9
	C65.6,84.3,56,88.3,45.8,88.3 M36.8,15.2c-6.2,1.6-11.9,4.8-16.5,9.4c-14.1,14.1-14.1,37,0,51.1c6.8,6.8,15.9,10.6,25.5,10.6
	c9.6,0,18.7-3.8,25.5-10.6c4.6-4.6,7.8-10.2,9.4-16.5c-2.4,1.6-5.1,2.8-7.9,3.6c-3.3,1-6.7,1.4-10.2,1.3c-3.3-0.1-6.6-0.7-9.8-1.8
	c-4.4-1.6-8.4-4.1-11.7-7.4l-0.1-0.1c0,0-0.1-0.1-0.1-0.1c-3.3-3.4-5.8-7.3-7.4-11.7c-1.1-3.1-1.7-6.4-1.8-9.8
	c-0.1-3.4,0.3-6.9,1.3-10.2C34,20.3,35.2,17.7,36.8,15.2"/>
<g>
	<defs>
		<path id="SVGID_1_" d="M42.9,53.2C42.9,53.2,42.9,53.2,42.9,53.2l-0.1-0.1c-1.6-1.7-1.6-4.3,0.1-5.9c0.8-0.8,1.9-1.2,3-1.2h0
			c1.1,0,2.2,0.4,3,1.2c1.7,1.7,1.7,4.3,0,6c-0.8,0.8-1.9,1.2-3,1.2C44.8,54.4,43.7,54,42.9,53.2 M38.8,48.2
			c-0.1-0.2-0.2-0.4-0.4-0.6c-0.2-0.3-0.3-0.5-0.5-0.8c-0.1-0.2-0.2-0.4-0.3-0.6c-0.1-0.3-0.3-0.5-0.4-0.8c-0.1-0.2-0.2-0.4-0.3-0.6
			c-0.1-0.3-0.2-0.5-0.4-0.8c-0.1-0.2-0.2-0.4-0.3-0.6c-0.1-0.2-0.1-0.3-0.2-0.5c0.3-0.4,0.7-0.9,1.1-1.3c2.3-2.3,5.3-3.5,8.6-3.5
			c3.2,0,6.3,1.3,8.6,3.5c2.3,2.3,3.5,5.3,3.5,8.6s-1.3,6.3-3.5,8.6l0,0c-0.4,0.4-0.8,0.8-1.3,1.1c-0.2-0.1-0.3-0.1-0.5-0.2
			c-0.2-0.1-0.5-0.2-0.7-0.3c-0.3-0.1-0.5-0.2-0.8-0.4c-0.2-0.1-0.4-0.2-0.7-0.3c-0.3-0.1-0.5-0.3-0.8-0.4c-0.2-0.1-0.4-0.2-0.6-0.3
			c-0.3-0.1-0.5-0.3-0.7-0.4c-0.2-0.1-0.4-0.2-0.6-0.4c-0.1-0.1-0.2-0.2-0.3-0.2c1.2-0.3,2.4-0.9,3.3-1.8c2.7-2.7,2.7-7.2,0-9.9
			c-1.3-1.3-3.1-2.1-4.9-2.1h0c-1.9,0-3.6,0.7-5,2.1c-0.9,0.9-1.5,2.1-1.8,3.3C39,48.4,38.9,48.3,38.8,48.2 M34.8,38.3
			c0-0.1,0-0.2-0.1-0.3c-0.1-0.6-0.2-1.2-0.3-1.8c0-0.1,0-0.2,0-0.3c-0.1-0.6-0.1-1.2-0.2-1.9c0,0,0-0.1,0-0.1
			c7.9-5.6,18.8-4.8,25.7,2.1c6.9,6.9,7.8,17.9,2.1,25.7c0,0-0.1,0-0.1,0c-0.6,0-1.2-0.1-1.9-0.2c-0.1,0-0.2,0-0.3,0
			c-0.6-0.1-1.2-0.2-1.8-0.3c-0.1,0-0.2,0-0.3-0.1c-0.5-0.1-1-0.2-1.5-0.4c0.1-0.1,0.1-0.1,0.2-0.2c2.8-2.8,4.4-6.5,4.4-10.5
			c0-4-1.5-7.7-4.4-10.5c-2.8-2.8-6.5-4.4-10.5-4.4s-7.7,1.5-10.5,4.4c-0.1,0.1-0.1,0.1-0.2,0.2C35,39.3,34.9,38.8,34.8,38.3
			 M34.3,30.4c0-0.2,0-0.5,0-0.7c0-0.2,0-0.3,0.1-0.5c0-0.2,0-0.4,0.1-0.7c0-0.2,0-0.3,0.1-0.5c0-0.2,0.1-0.4,0.1-0.6
			c0-0.2,0.1-0.3,0.1-0.5c0-0.2,0.1-0.4,0.1-0.6c0-0.2,0.1-0.4,0.1-0.5c0-0.2,0.1-0.4,0.1-0.6c0-0.2,0.1-0.4,0.1-0.5
			c0-0.1,0.1-0.2,0.1-0.3c10.4-4.3,22.3-1.9,30.3,6.1c8,8,10.4,19.8,6.1,30.3c-0.1,0-0.2,0.1-0.3,0.1c-0.1,0-0.3,0.1-0.4,0.1
			c-0.2,0.1-0.5,0.1-0.7,0.2c-0.1,0-0.3,0.1-0.4,0.1c-0.3,0.1-0.5,0.1-0.8,0.1c-0.1,0-0.2,0-0.4,0.1c-0.3,0-0.6,0.1-0.8,0.1
			c-0.1,0-0.2,0-0.3,0c-0.3,0-0.6,0.1-0.9,0.1c-0.1,0-0.2,0-0.3,0c-0.3,0-0.6,0-0.9,0.1c5.2-8.8,3.9-20.3-3.5-27.7
			c-7.4-7.4-18.9-8.7-27.7-3.5C34.2,30.6,34.2,30.5,34.3,30.4 M36.5,20.9c0.1-0.2,0.2-0.5,0.3-0.7c0.1-0.2,0.2-0.3,0.2-0.5
			c0.1-0.2,0.2-0.4,0.3-0.7c0.1-0.2,0.2-0.3,0.3-0.5c0.1-0.2,0.2-0.4,0.3-0.6c0.1-0.2,0.2-0.3,0.3-0.5c0.1-0.2,0.2-0.4,0.4-0.6
			c0.1-0.2,0.2-0.3,0.3-0.5c0.1-0.2,0.3-0.4,0.4-0.6c0.1-0.1,0.2-0.3,0.3-0.4c0.1-0.1,0.2-0.2,0.3-0.4c11.4-1.9,23.1,1.8,31.3,10
			c8.2,8.2,11.9,19.9,10,31.3c-0.1,0.1-0.2,0.2-0.3,0.2c-0.2,0.1-0.3,0.2-0.5,0.3c-0.2,0.1-0.4,0.3-0.6,0.4
			c-0.2,0.1-0.3,0.2-0.5,0.3c-0.2,0.1-0.4,0.2-0.6,0.4c-0.2,0.1-0.3,0.2-0.5,0.3c-0.2,0.1-0.4,0.2-0.6,0.3c-0.2,0.1-0.3,0.2-0.5,0.3
			c-0.2,0.1-0.5,0.2-0.7,0.3c-0.2,0.1-0.3,0.1-0.5,0.2c-0.2,0.1-0.5,0.2-0.7,0.3c0,0-0.1,0-0.1,0c3.6-10.9,0.8-22.8-7.5-31.1
			c-8.2-8.3-20.2-11-31.1-7.5C36.4,21,36.5,20.9,36.5,20.9 M42.8,11.4c0.5-0.5,1-0.9,1.5-1.4c0.2-0.1,0.3-0.3,0.5-0.4
			c0.3-0.3,0.7-0.6,1.1-0.9c0.2-0.2,0.4-0.3,0.6-0.4c0.3-0.2,0.7-0.5,1-0.7c0.2-0.2,0.5-0.3,0.7-0.4C48.4,7,48.7,6.8,49,6.7
			c10.4,0.7,20.3,5.2,27.7,12.7c7.4,7.4,11.9,17.2,12.7,27.7c-0.2,0.3-0.3,0.6-0.5,0.8c-0.1,0.2-0.3,0.5-0.4,0.7
			c-0.2,0.3-0.5,0.7-0.7,1c-0.2,0.2-0.3,0.4-0.5,0.6c-0.3,0.4-0.6,0.7-0.9,1c-0.1,0.2-0.3,0.3-0.4,0.5c-0.4,0.5-0.9,1-1.4,1.5
			c-0.2,0.2-0.3,0.3-0.5,0.4c1-11.3-3-22.6-11.1-30.7c-8.1-8.1-19.4-12.1-30.7-11.1C42.5,11.7,42.7,11.5,42.8,11.4 M78.6,17.4
			C71.8,10.6,63.1,6.1,53.7,4.5c3.2-1.2,6.6-1.7,10-1.7c7.7,0,15.3,3,20.9,8.6c8.2,8.2,10.7,20.3,6.9,30.9
			C89.9,32.9,85.4,24.2,78.6,17.4 M48.3,3.9L48.3,3.9L48,4.1c-2.6,1.4-5,3.2-7.1,5.4c-1,1-1.8,2-2.6,3l0,0l-0.3,0.4
			c-2.2,2.9-3.8,6.1-4.9,9.5l0,0L32.8,23c-0.9,3.1-1.4,6.3-1.4,9.6l0,0l0,0.7c0.1,3.1,0.6,6.2,1.6,9.2l0,0l0.2,0.7
			c0.2,0.6,0.4,1.1,0.6,1.6c0.1,0.1,0.1,0.3,0.2,0.4c0.2,0.4,0.4,0.8,0.6,1.2c0.1,0.2,0.2,0.3,0.3,0.5c0.2,0.4,0.4,0.7,0.6,1.1
			c0.1,0.2,0.2,0.4,0.3,0.6c0.2,0.3,0.4,0.6,0.6,0.9c0.1,0.2,0.3,0.4,0.4,0.6c0.2,0.3,0.4,0.6,0.6,0.9c0.2,0.2,0.3,0.4,0.5,0.6
			c0.2,0.3,0.4,0.5,0.6,0.8c0.2,0.2,0.4,0.4,0.6,0.7c0.2,0.2,0.4,0.5,0.6,0.7c0.2,0.2,0.4,0.5,0.7,0.7c0.2,0.2,0.3,0.4,0.5,0.6
			c0.1,0.1,0.1,0.1,0.1,0.2l0.4,0.4h0c0.2,0.2,0.3,0.3,0.5,0.5c0.2,0.2,0.4,0.4,0.6,0.6c0.2,0.2,0.5,0.4,0.7,0.6
			c0.2,0.2,0.4,0.3,0.6,0.5c0,0,0.1,0.1,0.1,0.1c0.2,0.2,0.4,0.3,0.6,0.5c0.2,0.2,0.4,0.3,0.6,0.5c0.2,0.1,0.4,0.3,0.6,0.4
			c0.1,0,0.1,0.1,0.2,0.1c0.2,0.1,0.4,0.3,0.6,0.4c0.3,0.2,0.6,0.4,0.9,0.5c0.2,0.1,0.4,0.2,0.6,0.4c0.3,0.2,0.6,0.3,1,0.5
			c0.2,0.1,0.4,0.2,0.6,0.3c0,0,0,0,0.1,0c0.3,0.2,0.7,0.3,1,0.5c0.2,0.1,0.3,0.2,0.5,0.2c0.5,0.2,1.1,0.4,1.6,0.6c0,0,0,0,0,0
			l0.6,0.2l0,0c3,1,6.1,1.5,9.2,1.6h0l0.7,0l0,0c0.1,0,0.2,0,0.3,0c3.1,0,6.3-0.5,9.3-1.4l0.6-0.2l0,0c0.4-0.1,0.8-0.3,1.1-0.4
			c3-1.1,5.8-2.6,8.4-4.5c0,0,0,0,0,0c0,0,0,0,0,0l0.4-0.3l0,0c1-0.8,2-1.7,3-2.6c2.1-2.1,3.9-4.5,5.4-7.1l0.2-0.4l0,0
			c6.8-12.5,4.5-28.1-5.6-38.2C80.4,3.2,72.1,0,63.7,0C58.4,0,53.2,1.3,48.3,3.9"/>
	</defs>
	<clipPath id="SVGID_00000154426473080005808550000014024678652702477711_">
		<use xlink:href="#SVGID_1_"  style="overflow:visible;"/>
	</clipPath>
	
		<linearGradient id="SVGID_00000086653458893000400970000006404548458653642917_" gradientUnits="userSpaceOnUse" x1="-803.6271" y1="568.0222" x2="-802.6262" y2="568.0222" gradientTransform="matrix(-45.6361 -45.6361 -45.6361 45.6361 -10664.8066 -62542.2617)">
		<stop  offset="0" style="stop-color:#CB2729"/>
		<stop  offset="1" style="stop-color:#353D91"/>
	</linearGradient>
	
		<polygon style="clip-path:url(#SVGID_00000154426473080005808550000014024678652702477711_);fill:url(#SVGID_00000086653458893000400970000006404548458653642917_);" points="
		65.2,98.3 -0.9,32.3 65.2,-33.8 131.2,32.3 	"/>
</g>
<g>
	<polygon points="106.7,30.1 124.5,30.1 124.5,35.1 112.3,35.1 112.3,42.3 123.5,42.3 123.5,47 112.3,47 112.3,54.6 124.5,54.6 
		124.5,59.6 106.7,59.6 	"/>
	<path d="M128.1,48.8c0-6.9,4.8-11.4,9.7-11.4c3.2,0,5.9,1.6,7.4,4.1l0.6-3.6h4.6v21.8h-4.6l-0.6-3.6c-1.5,2.5-4.2,4.1-7.4,4.1
		C132.9,60.2,128.1,55.6,128.1,48.8 M145,48.7c0-3.8-2.4-6.5-5.6-6.5c-3.3,0-5.7,2.7-5.7,6.5s2.5,6.5,5.7,6.5
		C142.6,55.2,145,52.5,145,48.7"/>
	<path d="M155.1,37.8h4.4l0.6,3.3h0.1c1.5-2.7,4.1-3.6,6-3.6c0.6,0,1.1,0,1.6,0.2v5.1c-0.6-0.1-1.1-0.2-1.7-0.2
		c-2.7,0-5.4,1.5-5.4,5.7v11.2h-5.5V37.8z"/>
	<path d="M179.1,37.8h5.9v4.6h-5.9v8.8c0,2.9,1.9,4.1,4.4,4.1c0.6,0,1.3-0.1,1.9-0.2v4.7c-0.7,0.2-1.7,0.3-3.1,0.3
		c-5.4,0-8.5-3.2-8.5-8.6v-9.1h-3.2v-4.6h3.2v-5.1h5.3V37.8z"/>
	<path d="M194.8,40.1L194.8,40.1c1.3-1.6,3.5-2.8,6-2.8c4.7,0,7.7,2.7,7.7,7.8v14.5h-5.5V46.7c0-3-1.3-4.4-3.9-4.4
		c-2.4,0-4.4,1.4-4.4,4.2v13.1h-5.5V27.9h5.5V40.1z"/>
	<path d="M231.1,31.5v5.2c-2-1.4-4.8-2.3-7.2-2.3c-2.7,0-4.8,1.2-4.8,3.4c0,2,1.8,3,5.2,4.4c4.3,1.8,8.6,3.6,8.6,9
		c0,5.5-4.4,9-10.5,9c-3.6,0-6.8-1.3-8.8-2.7V52c2.1,1.9,5.2,3.3,8.3,3.3c3,0,5.3-1.5,5.3-3.9c0-2.2-2.1-3.3-5.6-4.8
		c-3.9-1.6-8-3.5-8-8.6c0-5.1,4.1-8.6,10.1-8.6C226.5,29.5,229.2,30.3,231.1,31.5"/>
	<path d="M248.1,55.2c1.7,0,3.8-0.4,5.6-1.7v5.1c-1.7,1-4,1.5-6.3,1.5c-6.4,0-11.3-4.8-11.3-11.5c0-6.6,4.9-11.4,11.3-11.4
		c2.2,0,4.5,0.4,6.3,1.5V44c-1.8-1.2-3.6-1.7-5.6-1.7c-3.4,0-6.5,2.5-6.5,6.5C241.6,52.8,244.6,55.2,248.1,55.2"/>
	<path d="M256.8,48.7c0-6.7,4.9-11.4,11.2-11.4c6.4,0,11.2,4.7,11.2,11.4c0,6.7-4.8,11.4-11.2,11.4
		C261.7,60.2,256.8,55.4,256.8,48.7 M273.8,48.7c0-4.1-2.8-6.5-5.7-6.5c-2.9,0-5.7,2.3-5.7,6.5c0,4.1,2.8,6.5,5.7,6.5
		C271,55.2,273.8,52.8,273.8,48.7"/>
	<path d="M282.8,37.8h4.6l0.6,3.6c1.5-2.5,4.2-4.1,7.3-4.1c5.1,0,9.8,4.4,9.8,11.4c0,7-4.6,11.4-9.7,11.4c-2.9,0-5.7-1.6-7.1-3.9
		v11.7h-5.5V37.8z M299.5,48.7c0-3.8-2.5-6.4-5.7-6.4c-3.2,0-5.7,2.7-5.7,6.5c0,3.8,2.5,6.5,5.6,6.5
		C297.1,55.2,299.5,52.5,299.5,48.7"/>
	<path d="M328.4,50.3h-15.3c0.8,3.5,3.6,5.4,7.2,5.4c2.4,0,4.8-0.9,6.9-2.4V58c-2.2,1.4-4.8,2.1-7.6,2.1c-7.4,0-11.8-4.7-11.8-11.4
		c0-7,4.9-11.5,10.8-11.5c5.4,0,9.9,3.8,9.9,11C328.6,49.1,328.5,49.7,328.4,50.3 M323.3,46.9c-0.1-3.4-2.1-5.1-4.7-5.1
		c-2.7,0-5,2-5.6,5.1H323.3z"/>
</g>
<path class="st0" d="M117.8,93.4c-6.4,0-12.3-5-12.3-13.1c0-8,5.9-13,12.3-13c2.9,0,5,0.8,6.6,1.7v2.5c-2-1.2-3.8-2-6.6-2
	c-4.8,0-9.9,3.9-9.9,10.8c0,6.8,5,10.8,9.9,10.8c2.7,0,4.6-0.8,6.6-2v2.6C122.8,92.6,120.7,93.4,117.8,93.4"/>
<path class="st0" d="M126.8,83.9c0-5.4,3.7-9.4,8.8-9.4c5.1,0,8.8,4.1,8.8,9.4s-3.7,9.4-8.8,9.4C130.5,93.3,126.8,89.3,126.8,83.9
	 M142.1,83.9c0-4.6-3.2-7.2-6.5-7.2c-3.4,0-6.6,2.6-6.6,7.2c0,4.6,3.2,7.2,6.6,7.2C139,91.1,142.1,88.5,142.1,83.9"/>
<path class="st0" d="M162.4,81v12h-2.3v-11c0-3.5-1.6-5.2-4.7-5.2c-2.8,0-5,2.1-5,5v11.2h-2.3V74.8h1.8l0.3,2.8h0.1
	c1-1.7,3-3.2,5.6-3.2C159.8,74.4,162.4,77,162.4,81"/>
<path class="st0" d="M178.2,76v2.5c-1.3-1.1-3.2-2-5.4-2c-2.5,0-3.9,1.1-3.9,2.8c0,1.9,1.7,2.5,4.3,3.3c2.7,0.8,5.9,1.7,5.9,5.3
	c0,3.2-2.5,5.3-6.4,5.3c-2.2,0-4.5-0.7-6.2-2.1v-2.7c1.4,1.5,3.5,2.7,6.1,2.7c2.7,0,4.2-1.3,4.2-3.1c0-2-1.9-2.7-4.6-3.5
	c-3-0.9-5.7-1.8-5.7-5c0-3,2.4-5.1,6.2-5.1C174.9,74.4,177,75,178.2,76"/>
<path class="st0" d="M181.6,83.9c0-5.4,3.7-9.4,8.8-9.4c5.1,0,8.8,4.1,8.8,9.4s-3.7,9.4-8.8,9.4C185.3,93.3,181.6,89.3,181.6,83.9
	 M197,83.9c0-4.6-3.2-7.2-6.5-7.2c-3.4,0-6.6,2.6-6.6,7.2c0,4.6,3.2,7.2,6.6,7.2C193.8,91.1,197,88.5,197,83.9"/>
<path class="st0" d="M202.2,74.8h1.8l0.3,2.9h0c1.2-2.4,3.6-3.1,5.3-3.1c0.4,0,0.8,0,1.1,0.1v2.2c-0.4-0.1-0.8-0.1-1.2-0.1
	c-2.5,0-5.1,1.7-5.1,5.3v10.8h-2.3V74.8z"/>
<path class="st0" d="M218.8,74.8h5.3v2.1h-5.3v9.9c0,3,1.7,4.3,4.1,4.3c0.5,0,1-0.1,1.6-0.2v2.1c-0.2,0-1,0.2-1.9,0.2
	c-3.6,0-6.1-2.2-6.1-6.2v-10h-2.7v-2.1h2.8v-4.3h2.2V74.8z"/>
<path class="st0" d="M228.1,68.5c0-0.9,0.6-1.5,1.6-1.5c0.9,0,1.6,0.6,1.6,1.5c0,0.9-0.6,1.6-1.6,1.6
	C228.7,70.1,228.1,69.4,228.1,68.5 M228.5,74.8h2.3v18.1h-2.3V74.8z"/>
<path class="st0" d="M236.4,86.1V74.8h2.3v11.4c0,3,1.8,4.9,4.8,4.9c3,0,4.9-1.9,4.9-4.9V74.8h2.3v11.3c0,4.3-2.8,7.2-7.2,7.2
	C239,93.3,236.4,90.3,236.4,86.1"/>
<path class="st0" d="M278.7,80.8v12.1h-2.3V81.1c0-2.8-1.2-4.4-3.8-4.4c-2.6,0-4.2,2.2-4.2,4.5v11.8h-2.3V81.1
	c0-2.8-1.1-4.4-3.8-4.4c-2.7,0-4.2,2.3-4.2,4.6v11.6h-2.3V74.8h1.8l0.3,2.7h0.1c0.9-1.8,2.6-3.1,4.8-3.1c2.6,0,4.2,1.1,5,3.2
	c1-1.9,2.7-3.2,5.2-3.2C276.9,74.4,278.7,77.1,278.7,80.8"/>
</svg>
