<svg enable-background="new 0 0 328.6 96" viewBox="0 0 328.6 96" xmlns="http://www.w3.org/2000/svg" xmlns:xlink="http://www.w3.org/1999/xlink"><clipPath id="a"><path d="m42.9 53.2-.1-.1c-1.6-1.7-1.6-4.3.1-5.9.8-.8 1.9-1.2 3-1.2 1.1 0 2.2.4 3 1.2 1.7 1.7 1.7 4.3 0 6-.8.8-1.9 1.2-3 1.2s-2.2-.4-3-1.2m-4.1-5c-.1-.2-.2-.4-.4-.6-.2-.3-.3-.5-.5-.8-.1-.2-.2-.4-.3-.6-.1-.3-.3-.5-.4-.8-.1-.2-.2-.4-.3-.6-.1-.3-.2-.5-.4-.8-.1-.2-.2-.4-.3-.6s-.1-.3-.2-.5c.3-.4.7-.9 1.1-1.3 2.3-2.3 5.3-3.5 8.6-3.5 3.2 0 6.3 1.3 8.6 3.5 2.3 2.3 3.5 5.3 3.5 8.6s-1.3 6.3-3.5 8.6c-.4.4-.8.8-1.3 1.1-.2-.1-.3-.1-.5-.2s-.5-.2-.7-.3c-.3-.1-.5-.2-.8-.4-.2-.1-.4-.2-.7-.3s-.5-.3-.8-.4c-.2-.1-.4-.2-.6-.3-.3-.1-.5-.3-.7-.4s-.4-.2-.6-.4c-.1-.1-.2-.2-.3-.2 1.2-.3 2.4-.9 3.3-1.8 2.7-2.7 2.7-7.2 0-9.9-1.3-1.3-3.1-2.1-4.9-2.1-1.9 0-3.6.7-5 2.1-.9.9-1.5 2.1-1.8 3.3.1-.2-0-.3-.1-.4m-4-9.9c0-.1 0-.2-.1-.3-.1-.6-.2-1.2-.3-1.8 0-.1 0-.2 0-.3-.1-.6-.1-1.2-.2-1.9v-.1c7.9-5.6 18.8-4.8 25.7 2.1s7.8 17.9 2.1 25.7h-.1c-.6 0-1.2-.1-1.9-.2-.1 0-.2 0-.3 0-.6-.1-1.2-.2-1.8-.3-.1 0-.2 0-.3-.1-.5-.1-1-.2-1.5-.4.1-.1.1-.1.2-.2 2.8-2.8 4.4-6.5 4.4-10.5s-1.5-7.7-4.4-10.5c-2.8-2.8-6.5-4.4-10.5-4.4s-7.7 1.5-10.5 4.4c-.1.1-.1.1-.2.2-.1-.4-.2-.9-.3-1.4m-.5-7.9c0-.2 0-.5 0-.7s0-.3.1-.5c0-.2 0-.4.1-.7 0-.2 0-.3.1-.5 0-.2.1-.4.1-.6s.1-.3.1-.5.1-.4.1-.6.1-.4.1-.5c0-.2.1-.4.1-.6s.1-.4.1-.5.1-.2.1-.3c10.4-4.3 22.3-1.9 30.3 6.1s10.4 19.8 6.1 30.3c-.1 0-.2.1-.3.1s-.3.1-.4.1c-.2.1-.5.1-.7.2-.1 0-.3.1-.4.1-.3.1-.5.1-.8.1-.1 0-.2 0-.4.1-.3 0-.6.1-.8.1-.1 0-.2 0-.3 0-.3 0-.6.1-.9.1-.1 0-.2 0-.3 0-.3 0-.6 0-.9.1 5.2-8.8 3.9-20.3-3.5-27.7s-18.9-8.7-27.7-3.5c-.1-0-.1-.1 0-.2m2.2-9.5c.1-.2.2-.5.3-.7s.2-.3.2-.5c.1-.2.2-.4.3-.7.1-.2.2-.3.3-.5s.2-.4.3-.6.2-.3.3-.5.2-.4.4-.6c.1-.2.2-.3.3-.5s.3-.4.4-.6c.1-.1.2-.3.3-.4s.2-.2.3-.4c11.4-1.9 23.1 1.8 31.3 10s11.9 19.9 10 31.3c-.1.1-.2.2-.3.2-.2.1-.3.2-.5.3s-.4.3-.6.4-.3.2-.5.3-.4.2-.6.4c-.2.1-.3.2-.5.3s-.4.2-.6.3-.3.2-.5.3-.5.2-.7.3-.3.1-.5.2-.5.2-.7.3h-.1c3.6-10.9.8-22.8-7.5-31.1-8.2-8.3-20.2-11-31.1-7.5-.1.1 0 0 0 0m6.3-9.5c.5-.5 1-.9 1.5-1.4.2-.1.3-.3.5-.4.3-.3.7-.6 1.1-.9.2-.2.4-.3.6-.4.3-.2.7-.5 1-.7.2-.2.5-.3.7-.4.2-.2.5-.4.8-.5 10.4.7 20.3 5.2 27.7 12.7 7.4 7.4 11.9 17.2 12.7 27.7-.2.3-.3.6-.5.8-.1.2-.3.5-.4.7-.2.3-.5.7-.7 1-.2.2-.3.4-.5.6-.3.4-.6.7-.9 1-.1.2-.3.3-.4.5-.4.5-.9 1-1.4 1.5-.2.2-.3.3-.5.4 1-11.3-3-22.6-11.1-30.7s-19.4-12.1-30.7-11.1c.2-.1.4-.3.5-.4m35.8 6c-6.8-6.8-15.5-11.3-24.9-12.9 3.2-1.2 6.6-1.7 10-1.7 7.7 0 15.3 3 20.9 8.6 8.2 8.2 10.7 20.3 6.9 30.9-1.6-9.4-6.1-18.1-12.9-24.9m-30.3-13.5-.3.2c-2.6 1.4-5 3.2-7.1 5.4-1 1-1.8 2-2.6 3l-.3.4c-2.2 2.9-3.8 6.1-4.9 9.5l-.3.6c-.9 3.1-1.4 6.3-1.4 9.6v.7c.1 3.1.6 6.2 1.6 9.2l.2.7c.2.6.4 1.1.6 1.6.1.1.1.3.2.4.2.4.4.8.6 1.2.1.2.2.3.3.5.2.4.4.7.6 1.1.1.2.2.4.3.6.2.3.4.6.6.9.1.2.3.4.4.6.2.3.4.6.6.9.2.2.3.4.5.6.2.3.4.5.6.8.2.2.4.4.6.7.2.2.4.5.6.7s.4.5.7.7c.2.2.3.4.5.6.1.1.1.1.1.2l.4.4.5.5.6.6c.2.2.5.4.7.6s.4.3.6.5c0 0 .1.1.1.1.2.2.4.3.6.5s.4.3.6.5c.2.1.4.3.6.4.1 0 .1.1.2.1.2.1.4.3.6.4.3.2.6.4.9.5.2.1.4.2.6.4.3.2.6.3 1 .5.2.1.4.2.6.3h.1c.3.2.7.3 1 .5.2.1.3.2.5.2.5.2 1.1.4 1.6.6l.6.2c3 1 6.1 1.5 9.2 1.6h.7.3c3.1 0 6.3-.5 9.3-1.4l.6-.2c.4-.1.8-.3 1.1-.4 3-1.1 5.8-2.6 8.4-4.5l.4-.3c1-.8 2-1.7 3-2.6 2.1-2.1 3.9-4.5 5.4-7.1l.2-.4c6.8-12.5 4.5-28.1-5.6-38.2-6-6.4-14.3-9.6-22.7-9.6-5.3 0-10.5 1.3-15.4 3.9"/></clipPath><linearGradient id="b" gradientTransform="matrix(-45.6361 -45.6361 -45.6361 45.6361 -10664.8066 -62542.2617)" gradientUnits="userSpaceOnUse" x1="-803.6271" x2="-802.6262" y1="568.0222" y2="568.0222"><stop offset="0" stop-color="#cb2729"/><stop offset="1" stop-color="#353d91"/></linearGradient><path d="m45.8 96c-12.2 0-23.8-4.8-32.4-13.4-8.6-8.7-13.4-20.2-13.4-32.4s4.8-23.8 13.4-32.4c9.3-9.3 22.2-14.2 35.3-13.4l2.9.2-2.5 1.4c-2.4 1.3-4.6 3-6.6 5-1 1-2 2.1-2.8 3.2-2.1 2.8-3.7 6-4.8 9.4-.9 3.1-1.4 6.3-1.3 9.6.1 3.1.7 6.2 1.7 9.2 1.5 4.2 3.8 7.9 7 11l.2.2c3.2 3.1 6.9 5.5 11.1 7 3 1.1 6 1.6 9.2 1.7 3.3.1 6.5-.3 9.6-1.2 3.4-1 6.6-2.6 9.4-4.8 1.1-.8 2.2-1.7 3.2-2.8 2-2 3.6-4.2 5-6.6l1.4-2.6.2 2.9c.8 13.1-4 26-13.3 35.3-8.7 8.7-20.2 13.5-32.5 13.5m0-89.9c-11.6 0-22.8 4.6-31.1 12.9-8.4 8.3-13 19.4-13 31.2s4.6 22.8 12.9 31.2c8.3 8.3 19.4 12.9 31.2 12.9s22.9-4.6 31.2-12.9l.6.6-.6-.6c8.3-8.3 12.9-19.5 12.9-31.1-1.1 1.6-2.4 3.1-3.8 4.5-1.1 1.1-2.2 2.1-3.4 2.9-3 2.3-6.3 4-10 5-3.3 1-6.7 1.4-10.1 1.3-3.3-.1-6.6-.7-9.7-1.8-4.4-1.6-8.3-4.1-11.7-7.4l-.1-.1s-.1-.1-.1-.1c-3.3-3.3-5.8-7.3-7.3-11.6-1.1-3.1-1.7-6.4-1.8-9.7-.1-3.4.3-6.8 1.3-10.1 1.1-3.6 2.8-7 5-10 .9-1.2 1.8-2.3 2.9-3.4 1.6-1.4 3.1-2.6 4.7-3.7" fill="#929497"/><path d="m41.9 54.1c-.1 0-.1 0 0 0z" fill="none" stroke="#221f1f" stroke-miterlimit="10" stroke-width="1.8739"/><path d="m45.9 65c-3.8 0-7.7-1.5-10.5-4.4-5-5-5.8-12.9-1.9-18.8l1.5-2.3.9 2.6c1.5 4.1 3.8 7.7 6.9 10.8l.2.2c3.1 3.1 6.8 5.4 10.9 6.9l2.6.9-2.3 1.5c-2.6 1.8-5.5 2.6-8.3 2.6m-11.4-19c-1.6 4.3-.6 9.4 2.8 12.8s8.4 4.4 12.8 2.8c-3.4-1.6-6.4-3.7-9.1-6.3l-.1-.1s-.1-.1-.1-.1c-2.7-2.8-4.8-5.8-6.3-9.1" fill="#929497"/><path d="m45.8 72.8c-5.8 0-11.6-2.2-16-6.6-8.8-8.8-8.8-23.2 0-32 .7-.7 1.4-1.3 2.2-1.9l1.9-1.5.1 2.4c.1 3.1.7 6.2 1.7 9.1 1.5 4.1 3.8 7.8 6.9 10.9l.2.2c3.1 3.1 6.8 5.4 10.9 6.9 2.9 1 6 1.6 9.1 1.7l2.4.1-1.5 1.9c-.6.8-1.2 1.5-1.9 2.2-4.4 4.4-10.2 6.6-16 6.6m-14-37s-.1.1-.1.1c-7.8 7.8-7.8 20.6 0 28.4s20.6 7.8 28.4 0c0 0 .1-.1.1-.1-2.5-.3-4.9-.8-7.3-1.7-4.5-1.6-8.5-4.1-11.8-7.5h-.1s-.1-.1-.1-.1c-3.3-3.4-5.8-7.3-7.4-11.8-.9-2.3-1.5-4.8-1.7-7.3" fill="#929497"/><path d="m45.8 80.5c-7.8 0-15.5-3-21.5-8.9-11.8-11.8-11.8-31.1 0-42.9 2.7-2.7 5.8-4.8 9.3-6.4l2.2-1-.7 2.3c-.9 3.1-1.3 6.3-1.2 9.5.1 3.1.7 6.2 1.7 9.1 1.5 4.1 3.8 7.8 6.9 10.9l.2.2c3.1 3.1 6.8 5.4 11 6.9 2.9 1 6 1.6 9.1 1.7 3.2.1 6.4-.3 9.5-1.2l2.3-.7-1 2.2c-1.5 3.5-3.7 6.6-6.3 9.3-5.9 6.1-13.7 9-21.5 9m-13.4-55c-2.4 1.3-4.5 2.9-6.5 4.8-11 11-11 28.8 0 39.8s28.8 11 39.8 0c1.9-1.9 3.5-4.1 4.8-6.4-2.6.6-5.2.8-7.8.7-3.3-.1-6.6-.7-9.8-1.8-4.5-1.6-8.4-4.1-11.8-7.4l-.1-.1s-.1-.1-.1-.1c-3.3-3.4-5.8-7.3-7.4-11.7-1.1-3.1-1.7-6.4-1.8-9.8-.1-2.9.2-5.5.7-8" fill="#929497"/><path d="m45.8 88.3c-10.2 0-19.7-4-26.9-11.2-14.9-14.8-14.9-39 0-53.9 5.5-5.5 12.4-9.1 19.9-10.5l2.5-.5-1.5 2c-2.1 2.8-3.7 6-4.7 9.4-.9 3.1-1.3 6.3-1.2 9.5.1 3.1.7 6.2 1.7 9.2 1.5 4.1 3.8 7.8 6.9 11l.2.2c3.1 3.1 6.8 5.5 11 6.9 2.9 1 6 1.6 9.1 1.7 3.2.1 6.4-.3 9.5-1.2 3.4-1 6.6-2.6 9.4-4.8l2-1.5-.5 2.5c-1.4 7.6-5 14.5-10.5 19.9-7.1 7.3-16.7 11.3-26.9 11.3m-9-73.1c-6.2 1.6-11.9 4.8-16.5 9.4-14.1 14.1-14.1 37 0 51.1 6.8 6.8 15.9 10.6 25.5 10.6s18.7-3.8 25.5-10.6c4.6-4.6 7.8-10.2 9.4-16.5-2.4 1.6-5.1 2.8-7.9 3.6-3.3 1-6.7 1.4-10.2 1.3-3.3-.1-6.6-.7-9.8-1.8-4.4-1.6-8.4-4.1-11.7-7.4l-.1-.1s-.1-.1-.1-.1c-3.3-3.4-5.8-7.3-7.4-11.7-1.1-3.1-1.7-6.4-1.8-9.8s.3-6.9 1.3-10.2c1-2.7 2.2-5.3 3.8-7.8" fill="#929497"/><path clip-path="url(#a)" d="m65.2 98.3-66.1-66 66.1-66.1 66 66.1z" fill="url(#b)"/><path d="m106.7 30.1h17.8v5h-12.2v7.2h11.2v4.7h-11.2v7.6h12.2v5h-17.8z"/><path d="m128.1 48.8c0-6.9 4.8-11.4 9.7-11.4 3.2 0 5.9 1.6 7.4 4.1l.6-3.6h4.6v21.8h-4.6l-.6-3.6c-1.5 2.5-4.2 4.1-7.4 4.1-4.9 0-9.7-4.6-9.7-11.4m16.9-.1c0-3.8-2.4-6.5-5.6-6.5-3.3 0-5.7 2.7-5.7 6.5s2.5 6.5 5.7 6.5 5.6-2.7 5.6-6.5"/><path d="m155.1 37.8h4.4l.6 3.3h.1c1.5-2.7 4.1-3.6 6-3.6.6 0 1.1 0 1.6.2v5.1c-.6-.1-1.1-.2-1.7-.2-2.7 0-5.4 1.5-5.4 5.7v11.2h-5.5v-21.7z"/><path d="m179.1 37.8h5.9v4.6h-5.9v8.8c0 2.9 1.9 4.1 4.4 4.1.6 0 1.3-.1 1.9-.2v4.7c-.7.2-1.7.3-3.1.3-5.4 0-8.5-3.2-8.5-8.6v-9.1h-3.2v-4.6h3.2v-5.1h5.3z"/><path d="m194.8 40.1c1.3-1.6 3.5-2.8 6-2.8 4.7 0 7.7 2.7 7.7 7.8v14.5h-5.5v-12.9c0-3-1.3-4.4-3.9-4.4-2.4 0-4.4 1.4-4.4 4.2v13.1h-5.5v-31.7h5.5v12.2z"/><path d="m231.1 31.5v5.2c-2-1.4-4.8-2.3-7.2-2.3-2.7 0-4.8 1.2-4.8 3.4 0 2 1.8 3 5.2 4.4 4.3 1.8 8.6 3.6 8.6 9 0 5.5-4.4 9-10.5 9-3.6 0-6.8-1.3-8.8-2.7v-5.5c2.1 1.9 5.2 3.3 8.3 3.3 3 0 5.3-1.5 5.3-3.9 0-2.2-2.1-3.3-5.6-4.8-3.9-1.6-8-3.5-8-8.6s4.1-8.6 10.1-8.6c2.8.1 5.5.9 7.4 2.1"/><path d="m248.1 55.2c1.7 0 3.8-.4 5.6-1.7v5.1c-1.7 1-4 1.5-6.3 1.5-6.4 0-11.3-4.8-11.3-11.5 0-6.6 4.9-11.4 11.3-11.4 2.2 0 4.5.4 6.3 1.5v5.3c-1.8-1.2-3.6-1.7-5.6-1.7-3.4 0-6.5 2.5-6.5 6.5s3 6.4 6.5 6.4"/><path d="m256.8 48.7c0-6.7 4.9-11.4 11.2-11.4 6.4 0 11.2 4.7 11.2 11.4s-4.8 11.4-11.2 11.4c-6.3.1-11.2-4.7-11.2-11.4m17 0c0-4.1-2.8-6.5-5.7-6.5s-5.7 2.3-5.7 6.5c0 4.1 2.8 6.5 5.7 6.5s5.7-2.4 5.7-6.5"/><path d="m282.8 37.8h4.6l.6 3.6c1.5-2.5 4.2-4.1 7.3-4.1 5.1 0 9.8 4.4 9.8 11.4s-4.6 11.4-9.7 11.4c-2.9 0-5.7-1.6-7.1-3.9v11.7h-5.5zm16.7 10.9c0-3.8-2.5-6.4-5.7-6.4s-5.7 2.7-5.7 6.5 2.5 6.5 5.6 6.5c3.4-.1 5.8-2.8 5.8-6.6"/><path d="m328.4 50.3h-15.3c.8 3.5 3.6 5.4 7.2 5.4 2.4 0 4.8-.9 6.9-2.4v4.7c-2.2 1.4-4.8 2.1-7.6 2.1-7.4 0-11.8-4.7-11.8-11.4 0-7 4.9-11.5 10.8-11.5 5.4 0 9.9 3.8 9.9 11 .1.9 0 1.5-.1 2.1m-5.1-3.4c-.1-3.4-2.1-5.1-4.7-5.1-2.7 0-5 2-5.6 5.1z"/><g fill="#929497"><path d="m117.8 93.4c-6.4 0-12.3-5-12.3-13.1 0-8 5.9-13 12.3-13 2.9 0 5 .8 6.6 1.7v2.5c-2-1.2-3.8-2-6.6-2-4.8 0-9.9 3.9-9.9 10.8 0 6.8 5 10.8 9.9 10.8 2.7 0 4.6-.8 6.6-2v2.6c-1.6.9-3.7 1.7-6.6 1.7"/><path d="m126.8 83.9c0-5.4 3.7-9.4 8.8-9.4s8.8 4.1 8.8 9.4-3.7 9.4-8.8 9.4-8.8-4-8.8-9.4m15.3 0c0-4.6-3.2-7.2-6.5-7.2-3.4 0-6.6 2.6-6.6 7.2s3.2 7.2 6.6 7.2 6.5-2.6 6.5-7.2"/><path d="m162.4 81v12h-2.3v-11c0-3.5-1.6-5.2-4.7-5.2-2.8 0-5 2.1-5 5v11.2h-2.3v-18.2h1.8l.3 2.8h.1c1-1.7 3-3.2 5.6-3.2 3.9 0 6.5 2.6 6.5 6.6"/><path d="m178.2 76v2.5c-1.3-1.1-3.2-2-5.4-2-2.5 0-3.9 1.1-3.9 2.8 0 1.9 1.7 2.5 4.3 3.3 2.7.8 5.9 1.7 5.9 5.3 0 3.2-2.5 5.3-6.4 5.3-2.2 0-4.5-.7-6.2-2.1v-2.7c1.4 1.5 3.5 2.7 6.1 2.7 2.7 0 4.2-1.3 4.2-3.1 0-2-1.9-2.7-4.6-3.5-3-.9-5.7-1.8-5.7-5 0-3 2.4-5.1 6.2-5.1 2.2 0 4.3.6 5.5 1.6"/><path d="m181.6 83.9c0-5.4 3.7-9.4 8.8-9.4s8.8 4.1 8.8 9.4-3.7 9.4-8.8 9.4-8.8-4-8.8-9.4m15.4 0c0-4.6-3.2-7.2-6.5-7.2-3.4 0-6.6 2.6-6.6 7.2s3.2 7.2 6.6 7.2c3.3-0 6.5-2.6 6.5-7.2"/><path d="m202.2 74.8h1.8l.3 2.9c1.2-2.4 3.6-3.1 5.3-3.1.4 0 .8 0 1.1.1v2.2c-.4-.1-.8-.1-1.2-.1-2.5 0-5.1 1.7-5.1 5.3v10.8h-2.3v-18.1z"/><path d="m218.8 74.8h5.3v2.1h-5.3v9.9c0 3 1.7 4.3 4.1 4.3.5 0 1-.1 1.6-.2v2.1c-.2 0-1 .2-1.9.2-3.6 0-6.1-2.2-6.1-6.2v-10h-2.7v-2.1h2.8v-4.3h2.2z"/><path d="m228.1 68.5c0-.9.6-1.5 1.6-1.5.9 0 1.6.6 1.6 1.5s-.6 1.6-1.6 1.6-1.6-.7-1.6-1.6m.4 6.3h2.3v18.1h-2.3z"/><path d="m236.4 86.1v-11.3h2.3v11.4c0 3 1.8 4.9 4.8 4.9s4.9-1.9 4.9-4.9v-11.4h2.3v11.3c0 4.3-2.8 7.2-7.2 7.2-4.5 0-7.1-3-7.1-7.2"/><path d="m278.7 80.8v12.1h-2.3v-11.8c0-2.8-1.2-4.4-3.8-4.4s-4.2 2.2-4.2 4.5v11.8h-2.3v-11.9c0-2.8-1.1-4.4-3.8-4.4s-4.2 2.3-4.2 4.6v11.6h-2.3v-18.1h1.8l.3 2.7h.1c.9-1.8 2.6-3.1 4.8-3.1 2.6 0 4.2 1.1 5 3.2 1-1.9 2.7-3.2 5.2-3.2 3.9 0 5.7 2.7 5.7 6.4"/></g></svg>