<svg enable-background="new 0 0 187.5 58.6" viewBox="0 0 187.5 58.6" xmlns="http://www.w3.org/2000/svg"><g fill="#fff"><path d="m12.8 21.7c1.6 0 2.8-.3 4-.9v-8.8h4.3v11.6c-2.4 1.5-5 2.4-8.4 2.4-6.8 0-12.7-5.1-12.7-13s5.9-13 12.7-13c2.9 0 5.5.7 7.5 1.9v4.7c-2.2-1.5-4.6-2.1-7-2.1-4.9 0-8.4 3.6-8.4 8.6s3.4 8.6 8 8.6z"/><path d="m42.3 25.4-2.4-6.5h-9.8l-2.4 6.5h-4.9l9.4-24.9h5.4l9.6 24.9zm-3.8-10.4-3.5-9.5-3.5 9.5z"/><path d="m60.8 21.7c1.6 0 2.8-.3 4-.9v-8.8h4.3v11.6c-2.4 1.5-5 2.4-8.4 2.4-6.8 0-12.7-5.1-12.7-13s6-13 12.8-13c2.9 0 5.5.7 7.5 1.9v4.7c-2.2-1.5-4.6-2.1-7-2.1-4.9 0-8.4 3.6-8.4 8.6s3.4 8.6 7.9 8.6z"/><path d="m74 .6h15v4.2h-10.3v6h9.5v3.9h-9.5v6.4h10.3v4.2h-15z"/><path d="m118.8 1.7v4.4c-1.7-1.2-4-1.9-6.1-1.9-2.3 0-4.1 1-4.1 2.8 0 1.7 1.5 2.5 4.4 3.7 3.6 1.5 7.2 3.1 7.2 7.6 0 4.6-3.7 7.6-8.8 7.6-3 0-5.7-1.1-7.4-2.3v-4.6c1.7 1.6 4.4 2.8 7 2.8 2.5 0 4.4-1.2 4.4-3.3 0-1.9-1.8-2.8-4.7-4-3.3-1.4-6.7-3-6.7-7.2 0-4.3 3.5-7.2 8.5-7.2 2.4-.1 4.7.6 6.3 1.6z"/><path d="m140.8 25.4-2.4-6.5h-9.8l-2.4 6.5h-4.9l9.5-24.9h5.4l9.6 24.9zm-3.8-10.4-3.5-9.5-3.5 9.5z"/><path d="m159.3 21.7c1.6 0 2.8-.3 4-.9v-8.8h4.3v11.6c-2.4 1.5-5 2.4-8.4 2.4-6.8 0-12.7-5.1-12.7-13s5.9-13 12.7-13c2.9 0 5.5.7 7.5 1.9v4.7c-2.2-1.5-4.6-2.1-7-2.1-4.9 0-8.4 3.6-8.4 8.6.1 5 3.5 8.6 8 8.6z"/><path d="m172.5.6h15v4.2h-10.3v6h9.5v3.9h-9.5v6.4h10.3v4.2h-15z"/><path d="m3.3 40.4h9.8v2.1h-7.5v6.2h7.2v2h-7.2v7.5h-2.3z"/><path d="m29.7 58.3-2.1-5.4h-7.7l-2.1 5.4h-2.4l7-17.9h2.6l7.1 17.9zm-2.9-7.5-3.1-7.9-3.1 7.9z"/><path d="m43.8 58.6c-4.7 0-8.9-3.6-8.9-9.3s4.2-9.3 8.9-9.3c2 0 3.6.6 4.7 1.2v2.4c-1.4-.9-2.7-1.4-4.6-1.4-3.3 0-6.7 2.6-6.7 7.2 0 4.5 3.3 7.2 6.7 7.2 1.9 0 3.2-.6 4.6-1.5v2.4c-1.1.6-2.7 1.1-4.7 1.1z"/><path d="m54.4 40.4h2.2v17.9h-2.2z"/><path d="m64.5 40.4h2.2v15.8h7.9v2.1h-10.1z"/><path d="m79.4 40.4h2.2v17.9h-2.2z"/><path d="m92.1 42.5h-5.6v-2.1h13.5v2.1h-5.6v15.8h-2.2v-15.8z"/><path d="m104.7 40.4h2.2v17.9h-2.2z"/><path d="m114.8 40.4h9.8v2.1h-7.6v5.7h7v2h-7v6h7.6v2.1h-9.8z"/><path d="m139.5 41.2v2.3c-1.2-.9-2.8-1.4-4.2-1.4-1.8 0-3.4.9-3.4 2.7 0 1.6 1.2 2.3 3.7 3.4 2.7 1.2 4.9 2.4 4.9 5.3 0 3.3-2.7 5.2-5.9 5.2-2.1 0-3.9-.8-5-1.7v-2.5c1.2 1.2 3.1 2.1 4.9 2.1 2 0 3.7-1.1 3.7-3 0-1.7-1.3-2.5-3.8-3.6-2.6-1.2-4.7-2.3-4.7-5.1 0-3.1 2.5-4.9 5.6-4.9 1.6 0 3.1.5 4.2 1.2z"/></g></svg>